# xmcd CD database file
#
# Track frame offsets:
#	150
#	11362
#	17657
#	27110
#	35435
#	43092
#	52970
#	61585
#	70387
#	76987
#	82060
#	87830
#	95962
#	102640
#	110285
#	121662
#	126785
#	132922
#	139910
#	147192
#	154537
#	162555
#	166717
#	173145
#	180527
#	191160
#	199757
#	205759
#	216532
#	226905
#	236775
#	243927
#	254472
#	264717
#	271455
#	277455
#
# Disc length: 3715 seconds
#
# Revision: 1
# Processed by: cddbd v1.5.1PL2 Copyright (c) Steve Scherf et al.
# Submitted via: CDex 1.50
#
DISCID=0b0e8124
DTITLE=Katarina Fritzen - Mera flöjt
DYEAR=2003
DGENRE=Flute
TTITLE0=Beauty and the Beast
TTITLE1=Mamma mia
TTITLE2=Jag vill ha en egen måne
TTITLE3=My heart will go on
TTITLE4=A whole new world
TTITLE5=Those were the days
TTITLE6=Öppna landskap
TTITLE7=Can you feel the love tonight
TTITLE8=Fernando
TTITLE9=Sjösala vals
TTITLE10=The Flintstones
TTITLE11=Star of the country down
TTITLE12=Menuett
TTITLE13=Part of your world
TTITLE14=Colors of the wind
TTITLE15=Baby elephant walk
TTITLE16=Bort allt vad oro gör
TTITLE17=Sakta vi gå genom stan
TTITLE18=Under the sea
TTITLE19=Ack som ett fjun så lätt
TTITLE20=Reflection
TTITLE21=Music music music
TTITLE22=Auld lang syne
TTITLE23=Ta mig till havet
TTITLE24=Vandraren
TTITLE25=Morgonstämning
TTITLE26=Konvaljens avsked
TTITLE27=Diggi loo diggi ley
TTITLE28=Pomp and Circumstance
TTITLE29=Summer nights
TTITLE30=Yesterday
TTITLE31=Super Troup
TTITLE32=Fångad av en stormvind
TTITLE33=Jag vill ha blommig falukorv
TTITLE34=Låt mig få tända ett ljus
TTITLE35=Stämton
EXTD=YEAR: 2003
EXTT0=
EXTT1=
EXTT2=
EXTT3=
EXTT4=
EXTT5=
EXTT6=
EXTT7=
EXTT8=
EXTT9=
EXTT10=
EXTT11=
EXTT12=
EXTT13=
EXTT14=
EXTT15=
EXTT16=
EXTT17=
EXTT18=
EXTT19=
EXTT20=
EXTT21=
EXTT22=
EXTT23=
EXTT24=
EXTT25=
EXTT26=
EXTT27=
EXTT28=
EXTT29=
EXTT30=
EXTT31=
EXTT32=
EXTT33=
EXTT34=
EXTT35=
PLAYORDER=
